<?xml version="1.0" encoding="utf-8"?>
<!-- Generator: Adobe Illustrator 24.0.1, SVG Export Plug-In . SVG Version: 6.00 Build 0)  -->
<svg version="1.1" id="Layer_1" xmlns="http://www.w3.org/2000/svg" xmlns:xlink="http://www.w3.org/1999/xlink" x="0px" y="0px"
	 viewBox="0 0 1000 1000" style="enable-background:new 0 0 1000 1000;" xml:space="preserve">
<style type="text/css">
	.st0{fill:#0E76A8;}
</style>
<g>
	<g transform="translate(0.000000,460.000000) scale(0.100000,-0.100000)">
		<path class="st0" d="M4490.5,4481.5C1916.4,4200.7,11,2003.8,103.2-574.5c47.2-1294.6,574.4-2471.2,1513.2-3371.4
			c741.6-709.4,1665.3-1157.4,2713.4-1313.8c372.9-53.6,1020.2-51.4,1393.1,8.6c1069.5,171.5,2001.8,640.8,2745.5,1384.6
			c743.7,743.7,1213.1,1676,1384.6,2745.5c60,372.9,62.1,1020.2,8.6,1393.1c-321.5,2158.3-1926.8,3802.2-4074.4,4170.8
			C5489.3,4494.4,4788.4,4515.8,4490.5,4481.5z M3468.2,2201c107.2-45,244.3-169.3,300.1-276.5c66.4-124.3,66.4-394.4,0-516.5
			c-62.2-117.9-167.2-214.3-295.8-272.2c-152.2-68.6-405.1-66.4-563.7,2.1c-199.3,87.9-347.2,312.9-347.2,527.3
			c0,263.6,192.9,499.4,465.1,568C3136,2261,3367.4,2243.9,3468.2,2201z M6835.3,668.6c518.7-132.9,833.7-538,910.9-1168.1
			c15-115.7,23.6-602.3,23.6-1204.5v-1013.8h-568H6636l-6.4,1045.9c-6.4,1024.5-6.4,1045.9-53.6,1163.8
			c-90,218.6-250.8,325.8-490.8,325.8c-248.6,0-441.5-126.5-553-368.6c-42.9-96.4-45-128.6-51.4-1131.7l-6.4-1035.2h-555.1H4362
			v1682.5V647.1h557.3h557.3v-240V169.2l60,83.6C5692.9,465,5918,619.3,6158,677.1C6342.3,722.2,6640.2,720,6835.3,668.6z
			 M3757.5-1039.6l4.3-1678.2h-568h-568v1667.5c0,917.3,6.4,1676.1,15,1682.5c8.6,8.6,261.5,12.9,561.5,10.7l548.7-6.4
			L3757.5-1039.6z"/>
	</g>
</g>
</svg>
