<svg id="Layer_2" data-name="Layer 2" xmlns="http://www.w3.org/2000/svg" width="944.65" height="2077.47" viewBox="0 0 944.65 2077.47">
  <defs>
    <style>
      .cls-1 {
        fill: #fafafa;
      }
    </style>
  </defs>
  <title>logo</title>
  <polygon class="cls-1" points="143.33 2074.11 188.47 1951.26 175.9 1595.28 207.87 1249.63 165.53 1181.88 166.59 979.69 303.14 817.73 285.15 775.38 469.34 857.95 501.1 1108.84 560.38 1091.9 527.57 844.19 633.43 790.2 784.81 809.26 918.19 920.41 944.65 1019.92 709.65 1192.47 585.79 1443.36 803.86 1414.77 641.89 1473 574.14 1557.68 414.3 1612.73 370.89 1681.54 482.42 1602.53 417.27 1699.55 589.6 1625.99 738.81 1457.17 794.5 1448.42 807.46 1467.33 711.84 1590.97 470.51 1716.01 309.75 1751.04 359.13 1776.95 376.29 1762.94 429.18 1779.76 505.54 1710.41 518.85 1725.82 360.53 1887.98 577.69 1757.34 578.74 1787.46 382.6 1946.13 533.21 1891.49 470.86 1945.78 727.25 1858.91 725.85 1882.73 469.81 1986.4 378.05 1978.7 255.46 2012.32 214.83 2077.47 143.33 2074.11"/>
  <path class="cls-1" d="M253.6,305.74l316.93,99.18,9-12.57-76.71-45.9,146.63-99.83L805,270.8l84.62,193.81-7,31.2,16,32.37-39,75.65,23,24.18,61.61-126.35L890.8,252.86l-97.88-57.33-181.34-16L446.24,326.17,273.09,283.28Z" transform="translate(-253.6 -179.54)"/>
</svg>
